<?xml version="1.0" encoding="utf-8"?>
<!-- Generator: Adobe Illustrator 17.0.0, SVG Export Plug-In . SVG Version: 6.00 Build 0)  -->
<!DOCTYPE svg PUBLIC "-//W3C//DTD SVG 1.1//EN" "http://www.w3.org/Graphics/SVG/1.1/DTD/svg11.dtd">
<svg version="1.1" id="Calque_1" xmlns="http://www.w3.org/2000/svg" xmlns:xlink="http://www.w3.org/1999/xlink" x="0px" y="0px"
	 width="102.333px" height="40px" viewBox="0 0 102.333 40" enable-background="new 0 0 102.333 40" xml:space="preserve">
<g id="cindy">
	<path d="M69.129,37.499c-0.241-0.878-0.404-1.718-0.705-2.506c-0.325-0.85,0.1-2.722,0.848-3.261
		c0.379-0.273,0.747-0.487,1.237-0.631c0.858-0.251,1.646-0.77,2.215-1.578c0.214-0.304,0.77-0.367,1.169-0.541
		c0.137-0.059,0.382-0.103,0.394-0.183c0.124-0.798,0.858-1.185,1.183-1.823c0.202-0.396,0.309-0.694,0.814-0.832
		c0.311-0.085,0.592-0.519,0.755-0.86c0.345-0.723,0.603-1.487,0.905-2.257c-0.889-0.482-1.292,0.374-1.86,0.743
		c-0.244,0.159-0.403,0.443-0.625,0.644c-0.366,0.331-0.681,0.539-1.223,0.133c-0.312-0.234-0.904-0.176-1.355-0.123
		c-0.522,0.062-0.84-0.156-0.839-0.601c0.002-0.807-0.063-1.451-1.186-1.225c0.253-0.326,0.446-0.575,0.64-0.825
		c-0.067-0.082-0.133-0.164-0.2-0.246c-0.604,0.379-1.207,0.759-1.903,1.197c0.228,0.111,0.343,0.166,0.676,0.328
		c-0.545,0.361-0.958,0.745-1.447,0.938c-1.483,0.587-2.789-0.066-4.11-0.662c-0.456-0.206-0.995-0.228-1.56-0.348
		c-0.023-0.169-0.068-0.55-0.127-0.929c-0.104-0.659-0.604-1.101-1.104-1.332c-0.374-0.173-1.001-0.038-1.414,0.167
		c-0.806,0.399-1.526,0.968-2.312,1.414c-0.339,0.193-0.762,0.229-1.127,0.384c-0.665,0.283-1.316,0.601-1.971,0.907
		c-0.95,0.443-1.219,0.381-1.792-0.404c-0.05-0.068-0.148-0.101-0.327-0.217c0.1,0.304,0.162,0.489,0.205,0.622
		c-2.037-0.007-3.802-0.659-5.202-2.227c0.003-0.003,0.117-0.139,0.232-0.275c-0.733-0.609-1.227-0.615-2.009,0.008
		c-0.43,0.342-0.794,0.665-1.01,1.278c-0.168,0.478-0.976,0.775-1.548,1.052c-0.586,0.285-1.231,0.449-1.851,0.665
		c-0.093,0.032-0.207,0.109-0.279,0.081c-0.899-0.348-1.672,0.147-2.491,0.346c-0.27,0.066-0.556,0.068-0.652,0.079
		c-0.157-0.778-0.309-1.427-0.412-2.083c-0.047-0.295-0.042-0.615,0.018-0.908c0.125-0.619-0.281-1.804-0.763-2.197
		c-0.202-0.165-0.351-0.396-0.598-0.683c-0.133,0.122-0.323,0.233-0.423,0.398c-0.373,0.616-0.729,1.243-1.061,1.881
		c-0.07,0.135-0.041,0.341-0.011,0.506c0.099,0.544-0.297,1.188-0.865,1.357c0.052,0.333,0.104,0.668,0.166,1.065
		c-0.579,0.069-1.045,0.314-1.692,0.338c-1.504,0.056-3.18-0.395-4.501,0.421c-1.064,0.657-2.149,0.111-3.161,0.536
		c-0.256,0.108-0.715-0.201-1.055-0.37c-0.727-0.36-1.687-0.008-2.282-0.755c-1.05,0.262-1.968-0.686-3.085-0.276
		c-0.536,0.197-1.217,0.008-1.832-0.027c-0.111-0.006-0.281-0.084-0.314-0.172c-0.224-0.577-0.395-1.176-0.633-1.746
		c-0.089-0.214-0.278-0.433-0.479-0.541c-0.252-0.135-0.565-0.158-0.851-0.229c-0.037-0.086-0.074-0.171-0.111-0.257
		c-0.25,0.3-0.481,0.62-0.757,0.894c-0.239,0.237-0.673,0.369-0.773,0.639c-0.354,0.957-2.767,0.892-3.776,0.86
		c-0.986-0.031-1.986,0.111-2.959-0.001c-0.685-0.079-1.332-0.465-2.001-0.699c-1.11-0.388-1.437-1.461-1.966-2.326
		c-0.198-0.324-0.035-0.855-0.089-1.286c-0.049-0.393-0.229-0.777-0.238-1.167c-0.01-0.415,0.089-0.839,0.181-1.25
		c0.164-0.726,0.342-1.444-0.129-2.01c0.37-0.687,0.719-1.337,1.069-1.987c0.012-0.022,0.021-0.057,0.038-0.062
		c1.045-0.291,1.101-1.448,1.771-2.017c0.453-0.386,0.866-0.764,1.133-1.272C5.901,8.856,5.921,8.461,6.04,8.112
		c0.076-0.221,0.159-0.498,0.331-0.618c1-0.693,2.011-1.375,3.058-1.993c0.256-0.151,0.682-0.121,0.996-0.04
		c0.446,0.115,0.874,0.329,1.285,0.546c0.54,0.286,0.592,0.813,0.284,1.508c-0.234,0.528-0.53,1.097-0.526,1.646
		c0.006,0.864-0.35,1.436-0.911,2.022c-0.266,0.278-0.411,0.766-0.428,1.166c-0.036,0.818-0.418,1.264-1.146,1.586
		c-1.673,0.74-2.511,2.208-3.125,3.826c-0.165,0.435-0.228,0.911-0.314,1.372c-0.033,0.177-0.061,0.486,0.016,0.525
		c0.177,0.09,0.499,0.148,0.619,0.047c0.338-0.282,0.603-0.65,0.896-0.985c-0.036-0.068-0.071-0.136-0.107-0.204
		c0.376,0.088,0.759,0.154,1.127,0.269c0.613,0.192,1.176-0.15,1.396-0.798c0.087-0.258,0.314-0.625,0.522-0.657
		c0.794-0.122,1.095-0.8,1.592-1.252c0.105-0.095,0.243-0.266,0.22-0.371c-0.244-1.119,0.601-1.243,1.322-1.468
		c0.916-0.285,1.595-0.843,2.27-1.537c0.525-0.54,0.892-1.266,1.477-1.651c0.665-0.437,1.495-0.816,2.489-0.555
		c-0.047,0.731-0.134,1.453-0.126,2.175c0.005,0.409,0.057,0.896,0.283,1.206c0.406,0.558,0.518,1.086,0.373,1.749
		c-0.06,0.277,0.106,0.606,0.182,0.908c0.077,0.305,0.15,0.614,0.265,0.905c0.121,0.306,0.213,0.711,0.453,0.87
		c1.163,0.771,2.226,0.456,3.281-0.338c0.318-0.239,0.724-0.514,1.295-0.339c0.635,0.194,1.85-0.748,2.097-1.406
		c0.193-0.513,0.389-1.01,0.957-1.301c0.517-0.264,1.146-2.086,1.104-2.912c0.136-0.031,0.289-0.04,0.419-0.1
		c0.314-0.146,0.948,0.464,0.961-0.477c0.006-0.411,0.486-0.751,0.002-1.259c-0.174-0.183-0.043-0.819,0.137-1.143
		c0.34-0.614,0.721-1.231,1.33-1.646c0.589-0.402,1.248-0.441,1.937-0.435c0.528,0.004,1.057-0.109,1.587-0.152
		c0.307-0.025,0.618-0.013,0.927-0.018c-0.064,0.254-0.082,0.532-0.201,0.758c-0.389,0.74-0.415,1.551-0.466,2.347
		c-0.01,0.157,0.335,0.456,0.54,0.478c0.323,0.036,0.665-0.107,1.061-0.187c-0.092-0.226-0.169-0.412-0.245-0.599
		c0.735,0.766,1.355-0.101,2.003-0.195c0.531-0.077,1-0.584,1.494-0.905c0.429-0.279,0.742-0.382,1.07,0.216
		c0.338,0.615,0.942,1.083,1.281,1.697c0.73,1.324,1.011,2.749,0.765,4.278c-0.111,0.692-0.084,1.412-0.055,2.117
		c0.004,0.102,0.444,0.323,0.559,0.261c1.091-0.591,2.111-1.279,2.729-2.416c0.078-0.143,0.222-0.252,0.341-0.371
		c0.234-0.234,0.548-0.424,0.694-0.703c0.415-0.791,0.388-0.805,1.636-0.906c-0.125-0.115-0.22-0.203-0.314-0.29
		c0.278-0.32,0.547-0.63,0.821-0.945c0.942,0.207,2.106-0.383,2.589-1.278c0.102-0.189,0.332-0.374,0.538-0.43
		c0.521-0.14,1.12-0.392,1.579-0.25c0.498,0.155,0.919,0.667,1.284,1.099c0.207,0.245,0.16,0.7,0.362,0.955
		c0.25,0.317,0.622,0.703,0.972,0.737c0.53,0.052,0.949-0.28,1.075-0.916c0.08-0.405,0.343-0.775,0.562-1.242
		c-0.53-0.72,0.11-1.539,0.194-2.36c0.135-1.309,0.954-2.295,1.844-3.212c0.168-0.173,0.3-0.398,0.397-0.622
		c0.349-0.805,1.102-1.022,1.862-0.607c0.339,0.185,0.778,0.186,1.315,0.302c0.832,0.264,1.82,0.578,2.981,0.947
		c-0.313,0.523-0.567,1.247-1.064,1.711c-0.753,0.704-0.672,1.687-1.1,2.479c-0.097,0.179-0.215,0.411-0.38,0.477
		c-0.856,0.342-1.089,0.672-1.073,1.573c0.004,0.225-0.08,0.454-0.141,0.676c-0.025,0.092-0.161,0.195-0.139,0.252
		c0.415,1.09-0.147,2.336,0.616,3.393c0.512,0.71,0.823,1.562,1.293,2.307c0.166,0.263,0.515,0.445,0.819,0.577
		c0.4,0.173,0.553-0.051,0.735-0.442c0.216-0.465,0.613-0.875,1.01-1.218c0.501-0.433,0.578-0.942,0.548-1.546
		c-0.035-0.687-0.008-1.376-0.008-2.062c0.914-0.216,1.892-0.477,2.882-0.674c1.303-0.259,1.636-0.042,1.997,1.249
		c0.34,1.217,0.671,2.437,0.964,3.666c0.17,0.713,0.184,1.469,0.404,2.163c0.209,0.66,0.578,0.751,1.028,0.228
		c0.544-0.632,0.937-1.394,1.391-2.102c0.024-0.037,0.034-0.117,0.011-0.145c-0.742-0.908,0.204-1.914-0.162-2.852
		c-0.055-0.142,0.02-0.404,0.128-0.527c0.264-0.299,0.392-0.506,0.058-0.886c-0.306-0.347,0.181-1.484,0.589-1.818
		c0.937,0.14,1.736,0.258,2.534,0.381c0.115,0.018,0.306,0.036,0.326,0.099c0.294,0.901,1.195,0.926,1.857,1.199
		c0.695,0.287,0.617,0.678,0.559,1.235c-0.101,0.971-0.135,1.951-0.157,2.928c-0.005,0.232,0.15,0.468,0.25,0.754
		c-0.132,0.1-0.282,0.214-0.324,0.245c0,0.546,0,1.013,0,1.518c0.64,0.402,1.755-0.13,1.984-0.974
		c0.058-0.215,0.3-0.512,0.488-0.536c0.716-0.091,1.446-0.064,2.167-0.122c0.687-0.055,1.419-0.033,2.043-0.274
		c1.114-0.431,2.159-1.038,3.236-1.564c0.569-0.277,1.146-0.538,1.735-0.814c0.236,0.388,1.537,0.884,2.11,0.858
		c0.406-0.018,0.828,0.146,1.231,0.268c0.396,0.12,0.777,0.29,1.24,0.467c-0.089,0.247-0.174,0.525-0.288,0.792
		c-0.283,0.664-0.568,1.327-0.875,1.979c-0.104,0.222-0.244,0.556-0.419,0.592c-0.655,0.135-0.881,0.678-1.275,1.087
		c-0.446,0.464-1.051,0.77-1.566,1.173c-0.353,0.276-0.643,0.64-1.012,0.889c-0.321,0.217-0.712,0.332-1.076,0.482
		c-0.432,0.178-0.885,0.314-1.3,0.525c-1.297,0.659-2.588,1.33-3.864,2.028c-0.693,0.379-1.352,0.82-2.021,1.241
		c-0.125,0.078-0.299,0.173-0.33,0.291c-0.263,1.022-1.075,0.931-1.842,0.938c-0.048,0-0.123-0.033-0.141-0.013
		c-0.818,0.93-2.26,1.238-2.632,2.596c-0.105,0.383,0.026,0.83-0.074,1.216c-0.219,0.85-0.498,1.685-0.787,2.515
		c-0.145,0.416-0.284,0.881-0.855,0.925c-0.045,0.003-0.096,0.039-0.128,0.074c-0.436,0.467-0.665,1.19-1.478,1.191
		c-0.3,0.913-1.221,0.58-1.816,0.901c-0.016,0.009-0.047-0.01-0.057-0.012c-0.216-0.244-0.426-0.48-0.648-0.732
		c-0.495,0.873-1.008,1.045-1.924,0.716C72.005,37.583,70.573,37.34,69.129,37.499z M79.36,30.432
		c-0.688-0.838-1.146-0.401-1.609,0.131c-0.373,0.428-0.777,0.829-1.166,1.244c-0.05,0.053-0.104,0.114-0.123,0.181
		c-0.154,0.55-0.29,1.105-0.45,1.653c-0.113,0.385,0.013,0.511,0.398,0.444c0.958-0.166,1.435-0.984,1.975-1.615
		C78.869,31.906,79.06,31.092,79.36,30.432z M51.374,19.651c0.231-0.416,0.373-1.009,0.618-1.056
		c0.92-0.175,0.899-1.091,1.368-1.597c0.21-0.227-0.059-0.898-0.133-1.562c-0.315,0.337-0.529,0.547-0.721,0.775
		c-0.71,0.838-1.445,1.656-2.105,2.532c-0.358,0.475-0.081,0.781,0.461,0.857C51.032,19.625,51.204,19.635,51.374,19.651z"/>
	<path d="M26.89,11.144c0.132-0.086,0.263-0.171,0.363-0.237c-0.061-0.236-0.16-0.46-0.17-0.689
		c-0.042-0.919-0.186-1.802-0.73-2.579c-0.065-0.093-0.042-0.245-0.099-0.348c-0.19-0.341-0.398-0.673-0.667-1.121
		c1.058-0.806,0.27-2.127,0.601-3.428c0.943-0.039,2.078-0.091,3.213-0.128c0.383-0.013,0.774,0.059,1.15,0.009
		c1.103-0.146,1.317,0.906,1.89,1.435c0.195,0.18,0.147,0.865-0.037,1.169c-0.442,0.727-1,1.392-1.567,2.032
		c-0.867,0.979-1.823,1.88-2.662,2.881C27.304,11.179,27.346,11.214,26.89,11.144z"/>
</g>
</svg>
