<?xml version="1.0" encoding="utf-8"?>
<!-- Generator: Adobe Illustrator 17.0.0, SVG Export Plug-In . SVG Version: 6.00 Build 0)  -->
<!DOCTYPE svg PUBLIC "-//W3C//DTD SVG 1.1//EN" "http://www.w3.org/Graphics/SVG/1.1/DTD/svg11.dtd">
<svg version="1.1" id="Calque_1" xmlns="http://www.w3.org/2000/svg" xmlns:xlink="http://www.w3.org/1999/xlink" x="0px" y="0px"
	 width="75.333px" height="33.875px" viewBox="0 0 75.333 33.875" enable-background="new 0 0 75.333 33.875" xml:space="preserve">
<g id="liao">
	<path d="M10.83,3.272c0.447,0.275,0.88,0.202,1.188-0.18c0.333-0.412,0.571-0.479,0.846,0.021c0.032,0.058,0.115,0.111,0.18,0.12
		c0.037,0.005,0.131-0.097,0.122-0.128c-0.025-0.087,2.434-0.483,2.473-0.39c0.013,0.261,0.52,0.64,0.774,0.667
		c0.056,0.006,0.147,0.372,0.098,0.537c-0.104,0.354,1.415,0.692,1.438,0.707c0.237,0.155,0.442,0.359,0.675,0.522
		c0.159,0.112,0.353,0.172,0.523,0.271c0.161,0.094,0.375,0.173,0.452,0.318c0.222,0.423,0.387,0.876,0.576,1.317
		c0.013,0.031,0.048,0.055,0.053,0.085c0.096,0.514,0.2,1.027,0.276,1.544c0.015,0.101-0.081,0.218-0.125,0.328
		c-0.052-0.097-0.106-0.194-0.156-0.292c-0.033-0.066-0.06-0.134-0.089-0.202c-0.054,0.079-0.131,0.15-0.16,0.237
		c-0.292,0.872-0.585,1.745-0.86,2.622c-0.155,0.492-0.161,1.077-0.441,1.474c-0.564,0.802-0.383,1.734-0.397,2.536
		c-0.016,0.915-0.399,1.47-0.871,2.094c-0.16,0.212-0.259,0.47-0.384,0.708c-0.016,0.03-0.044,0.078-0.032,0.094
		c0.594,0.874-0.654,1.225-0.586,1.998c0.018,0.2-0.195,1.065-0.948,0.587c-0.048-0.031-0.348,0.244-0.456,0.422
		c-0.148,0.241-0.224,0.526-0.331,0.792c-0.082,0.019-0.164,0.038-0.246,0.057c0.01,0.016,0.027,0.048,0.029,0.047
		c0.072-0.034,0.143-0.071,0.214-0.107c0.213,0.281,0.378,0.625,0.649,0.828c0.467,0.348,0.951,0.788,1.62,0.306
		c0.149-0.108,0.438,0,0.651-0.047c0.225-0.049,0.517-0.105,0.634-0.264c0.213-0.291,0.28-0.686,0.483-0.987
		c0.121-0.18,0.489-0.221,0.565-0.401c0.214-0.508,0.187-1.209,0.534-1.544c0.343-0.331,0.398-0.724,0.623-1.06
		c0.241-0.36,0.352-0.881,0.676-1.091c0.441-0.286,0.376-1.085,1.255-1.023c0.301,0.021,0.815,0.018,1.224-0.067
		c0.348-0.072,0.726,0.003,1.074-0.069c0.621-0.129,1.225-0.346,1.847-0.468c0.167-0.033,0.547,0.188,0.54,0.213
		c-0.148,0.538-0.191,1.364-0.546,1.538c-1.059,0.517-1.269,1.459-1.616,2.381c-0.116,0.31-0.4,0.574-0.452,0.886
		c-0.086,0.511-0.044,1.043-0.057,1.566c-0.004,0.156-0.018,0.311-0.019,0.467c-0.003,0.376,0.953,1.038,1.301,0.892
		c0.067-0.028,0.089-0.151,0.153-0.204c0.313-0.259,0.628-0.517,0.954-0.76c0.193-0.143,0.468-0.218,0.588-0.4
		c0.073-0.11-0.125-0.371-0.118-0.561c0.007-0.181,0.082-0.39,0.195-0.531c0.232-0.288,0.575-0.503,0.752-0.815
		c0.241-0.425,0.407-0.904,0.536-1.378c0.125-0.457,0.133-0.947,0.258-1.404c0.038-0.137,0.368-0.176,0.445-0.323
		c0.256-0.486,0.618-0.997,0.629-1.505c0.009-0.427,0.172-0.523,0.436-0.669c0.068-0.038,0.127-0.114,0.197-0.124
		c0.627-0.097,1.254-0.227,1.886-0.255c0.315-0.014,0.635,0.223,0.958,0.239c0.357,0.017,0.801-0.305,0.901,0.35
		c0.003,0.018,0.04,0.049,0.046,0.046c0.385-0.194,0.76-0.413,1.156-0.583c0.489-0.21,0.27-0.566,0.232-0.895
		c-0.003-0.029,0.085-0.063,0.121-0.104c0.285-0.333,0.561-0.675,0.854-1c0.108-0.121,0.25-0.281,0.386-0.291
		c0.212-0.016,0.431,0.082,0.648,0.131c-0.051,0.035-0.102,0.07-0.153,0.105c0.015,0.014,0.03,0.029,0.044,0.043
		c0.035-0.051,0.069-0.102,0.104-0.153c0.367,0.386,0.7,0.815,1.111,1.146c0.351,0.282,0.877,0.373,1.173,0.691
		c0.498,0.536,0.901,1.17,1.282,1.8c0.079,0.131-0.145,0.421-0.173,0.645c-0.071,0.561-0.08,1.131-0.172,1.688
		c-0.069,0.42-0.356,0.799,0.252,1.123c0.241,0.129,0.279,0.626,0.424,0.95c0.063,0.142,0.208,0.259,0.234,0.402
		c0.023,0.132-0.047,0.29-0.107,0.423c-0.047,0.104-0.141,0.186-0.214,0.278c0.101,0.033,0.215,0.047,0.301,0.103
		c0.149,0.098,0.329,0.197,0.406,0.343c0.08,0.151,0.028,0.367,0.081,0.54c0.031,0.104,0.152,0.18,0.233,0.269
		c0.07-0.089,0.228,0.257,0.23,0.272c0.019,0.204-0.009,0.465,0.106,0.598c0.723,0.83,2.359,0.706,2.961-0.255
		c0.328-0.524,0.49-1.149,0.777-1.702c0.271-0.522,0.598-1.016,0.924-1.507c0.1-0.15,0.363-0.226,0.403-0.375
		c0.168-0.63,0.275-1.276,0.419-1.913c0.025-0.11,0.109-0.213,0.185-0.303c0.06-0.071,0.149-0.118,0.225-0.176
		c-0.095-0.035-0.195-0.062-0.283-0.11c-0.05-0.027-0.116-0.095-0.111-0.138c0.017-0.151,0.018-0.395,0.103-0.434
		c0.766-0.355,0.69-0.991,0.622-1.651c-0.011-0.105,0.126-0.259,0.233-0.337c0.383-0.278,0.862-0.466,1.156-0.813
		c0.421-0.496,0.673-1.132,1.076-1.647c0.153-0.196,0.518-0.243,0.796-0.323c0.38-0.109,0.767-0.239,1.156-0.259
		c0.339-0.017,0.695,0.188,1.027,0.15c0.502-0.058,0.988-0.248,1.484-0.369c0.148-0.036,0.307-0.037,0.46-0.031
		c0.097,0.004,0.191,0.059,0.29,0.077c0.821,0.149,1.69,0.187,2.43,0.516c0.187,0.083,0.357,0.388,0.721,0.343
		c0.138-0.017,0.301,0.121,0.444,0.203c0.058,0.034,0.142,0.146,0.133,0.157c-0.609,0.761,0.337,0.767,0.557,0.915
		c0.571,0.384,1.255,0.618,1.92,0.83c0.142,0.045,0.427-0.225,0.585-0.404c0.111-0.125,0.124-0.34,0.169-0.517
		c0.019-0.073,0.009-0.153,0.012-0.23c0.8,0.181,1.163-0.493,1.694-0.851c0.332-0.224,0.718-0.365,1.06-0.576
		c1.131-0.696,2.18-0.012,3.226,0.236c0.614,0.146,1.133,0.657,1.74,0.878c0.322,0.117,0.741-0.04,1.116-0.06
		c0.103-0.006,0.299,0.038,0.299,0.056c-0.008,0.474-0.018,0.95-0.069,1.422c-0.029,0.271-0.129,0.534-0.198,0.801
		c-0.027,0.104-0.025,0.243-0.092,0.305c-0.287,0.261-0.587,0.509-0.9,0.738c-0.097,0.071-0.246,0.08-0.374,0.098
		c-0.29,0.04-0.582,0.068-0.873,0.1c-0.05-0.035-0.1-0.07-0.15-0.106c-0.01,0.016-0.02,0.032-0.03,0.048
		c0.061,0.018,0.122,0.036,0.183,0.055c-0.107,0.843-0.759,1.017-1.43,1.174c-0.738,0.173-1.477,0.34-2.209,0.534
		c-0.587,0.156-1.187,0.297-1.738,0.543c-0.33,0.147-0.859,0.598-0.811,0.717c0.302,0.751-0.434,0.592-0.634,0.872
		c-0.172,0.24-0.172,0.623-0.194,0.946c-0.033,0.487-0.013,0.977-0.029,1.465c-0.002,0.077-0.054,0.183-0.117,0.223
		c-0.328,0.209-0.442,0.374,0.044,0.518c0.102,0.03,0.177,0.153,0.264,0.233c-0.088,0.065-0.197,0.115-0.259,0.199
		c-0.264,0.357-0.486,0.747-0.774,1.083c-0.493,0.574-1.016,1.122-1.541,1.667c-0.243,0.252-0.502,0.498-0.788,0.696
		c-0.19,0.132-0.442,0.176-0.668,0.256c-0.012,0.004-0.035-0.023-0.052-0.035c-0.385,0.751-0.667-0.169-0.995-0.058
		c-0.203,0.069-0.37,0.238-0.563,0.344c-0.229,0.124-0.459,0.263-0.706,0.334c-0.603,0.174-1.168,0.162-1.549-0.458
		c-0.015-0.024-0.146-0.021-0.157,0.003c-0.305,0.613-0.81,0.081-1.207,0.198c-0.137,0.04-0.446-0.105-0.499-0.237
		c-0.322-0.81-1.018-0.451-1.453-0.355c-0.563,0.124-1.048,0.583-1.583,0.866c-0.225,0.119-0.509,0.125-0.736,0.242
		c-0.2,0.103-0.342,0.312-0.537,0.431c-0.557,0.341-1.129,0.656-1.69,0.991c-0.283,0.169-0.569,0.339-0.826,0.543
		c-0.433,0.343-0.686,0.136-0.904-0.249c-0.016-0.028-0.04-0.082-0.048-0.079c-0.3,0.084-0.596,0.185-0.899,0.259
		c-0.558,0.136-1.12,0.257-1.681,0.38c-0.023,0.005-0.079-0.035-0.08-0.056c-0.056-1.033-0.846-0.305-1.239-0.52
		c-0.406-0.222-0.801-0.465-1.2-0.699c-0.073-0.043-0.141-0.094-0.216-0.134c-0.227-0.121-0.448-0.256-0.685-0.35
		c-0.216-0.086-0.477-0.08-0.671-0.194c-0.26-0.154-0.451-0.425-0.715-0.569c-0.209-0.114-0.481-0.117-0.726-0.162
		c-0.46-0.084-0.921-0.163-1.381-0.245c-0.009-0.002-0.016-0.024-0.023-0.024c-0.687,0.013-1.373,0.025-2.06,0.043
		c-0.229,0.006-0.465,0.074-0.683,0.033c-1.068-0.2-2.139-0.397-3.192-0.66c-0.475-0.119-0.897-0.474-1.373-0.561
		c-0.393-0.071-0.828,0.114-1.247,0.148c-0.219,0.018-0.444-0.047-0.666-0.071c-0.035-0.004-0.085-0.007-0.104,0.013
		c-0.075,0.078-0.125,0.187-0.21,0.247c-0.64,0.449-2.054,0.385-2.722-0.059c-0.232-0.154-0.566-0.148-0.836-0.257
		c-0.313-0.126-0.606-0.299-0.908-0.451c0.093-0.157,0.232-0.305,0.264-0.473c0.022-0.114-0.093-0.265-0.17-0.385
		c-0.111-0.174-0.21-0.417-0.372-0.482c-0.196-0.077-0.467-0.042-0.681,0.023c-0.511,0.155-1.841,1.619-2.63,1.737
		c-0.173,0.026-0.37,0.264-0.451,0.45c-0.198,0.456-0.403,0.128-0.627,0.06c-0.149-0.045-0.321-0.007-0.476-0.039
		c-0.083-0.017-0.161-0.095-0.224-0.162c-0.079-0.085-0.152-0.27-0.208-0.263c-0.126,0.017-0.245,0.119-0.358,0.199
		c-0.087,0.061-0.15,0.171-0.244,0.206c-0.374,0.139-0.749,0.303-1.139,0.368c-0.254,0.042-0.537-0.058-0.801-0.119
		c-0.23-0.053-0.46-0.124-0.678-0.215c-0.682-0.285-2.076-0.816-2.332-0.769c-0.388,0.072-1.366-0.734-1.51-0.743
		c-0.273-0.017-1.278,1.901-1.732,2.467c-0.512,0.639-1.159,1.176-1.783,1.717c-1.369,1.186-2.443,0.963-3.845,0.132
		c-0.173-0.103-0.265-0.341-0.4-0.513C2.16,30.035,2.1,29.925,2.018,29.901c-0.676-0.197-0.692-0.361-0.231-0.952
		c0.549-0.705,1.03-1.462,1.559-2.183c0.038-0.052,0.318,0.051,0.337,0.01c0.172-0.358,0.322-0.728,0.456-1.103
		c0.162-0.451,0.298-0.912,0.454-1.365c0.047-0.135,0.586-0.181,0.067-0.41c0.128-0.154,0.287-0.292,0.377-0.466
		c0.314-0.606,0.618-1.219,0.898-1.842c0.147-0.328,0.295-0.674,0.341-1.025c0.159-1.214,0.058-2.395-0.249-3.605
		c-0.225-0.885-0.114-1.869-0.066-2.805c0.037-0.71,0.299-1.413,0.296-2.118c-0.003-0.579-0.296-1.15-0.373-1.737
		C5.807,9.712,5.796,9.105,5.843,8.512c0.016-0.198,0.339-0.354,0.456-0.566C6.575,7.446,6.821,6.928,7.06,6.408
		c0.129-0.281,0.222-0.579,0.325-0.871c0.313-0.888,0.892-1.351,1.866-1.498c0.339-0.051,1.509-0.863,1.582-0.763
		C10.834,3.276,10.83,3.272,10.83,3.272z M54.294,22.08c-0.277,0.046-0.571,0.052-0.823,0.157c-0.111,0.047-0.138,0.296-0.203,0.453
		c0.281,0.06,0.559,0.139,0.843,0.168c0.09,0.009,0.276-0.113,0.277-0.179c0.005-0.2-0.059-0.403-0.096-0.604
		c0.109,0.085,0.219,0.17,0.328,0.255c0.067,0.052,0.133,0.103,0.2,0.154c-0.018-0.121,0.001-0.317-0.062-0.348
		C54.626,22.073,54.451,22.094,54.294,22.08z M11.877,15.739c0.046,0.058,0.092,0.116,0.137,0.174
		c0.024-0.029,0.049-0.059,0.073-0.088c-0.071-0.028-0.142-0.055-0.213-0.083c-0.088-0.14,0.091-1.056,0.148-1.185
		c0.118-0.27,0.225-0.562,0.25-0.853c0.034-0.401-0.011-0.809-0.023-1.213c-0.288,0.108,0.263-0.932-0.354-1.551
		c-0.033-0.033,0.004-0.132,0.003-0.2c-0.006-0.298,0.037-0.611-0.041-0.889c-0.04-0.143-0.296-0.225-0.455-0.335
		c-0.059,0.089-0.128,0.172-0.175,0.267c-0.345,0.689-0.707,1.371-1.018,2.075c-0.114,0.259-0.061,0.588-0.159,0.858
		c-0.142,0.392,0.291,0.979-0.438,1.199c-0.159,0.048-0.274,0.452-0.294,0.701c-0.036,0.457,0.007,0.922,0.031,1.383
		c0.009,0.173,0.001,0.413,0.104,0.503c0.33,0.287,0.687,0.57,1.081,0.745c0.149,0.066,0.511-0.104,0.635-0.271
		C11.453,16.598,11.647,16.155,11.877,15.739z M32.757,22.868c0.117,0.19,0.18,0.418,0.307,0.462
		c0.137,0.047,0.332-0.081,0.503-0.127c0.819-0.22,0.701-1.032,0.978-1.589c0.039-0.078,0.189-0.741,0.164-1.285
		c-0.008-0.172,0.097-0.425,0.018-0.499c-0.119-0.11-0.411-0.19-0.531-0.118C32.99,20.433,33.395,21.858,32.757,22.868z
		 M54.814,21.34c0.112,0.234,0.181,0.38,0.251,0.526c0.139-0.207,0.281-0.411,0.404-0.627c0.005-0.008-0.188-0.187-0.268-0.172
		C55.083,21.089,54.983,21.213,54.814,21.34z M54.613,13.72c0.364-0.021,0.487-0.006,0.593-0.041
		c0.072-0.024,0.146-0.109,0.17-0.183c0.011-0.034-0.123-0.163-0.147-0.152C55.087,13.41,54.957,13.504,54.613,13.72z M9.152,4.54
		C9.048,4.465,8.979,4.397,8.964,4.407C8.866,4.475,8.78,4.56,8.69,4.64c0.053,0.028,0.118,0.09,0.158,0.077
		C8.94,4.687,9.019,4.621,9.152,4.54z M6.625,10.629c-0.059-0.087-0.102-0.151-0.146-0.215c-0.05,0.073-0.136,0.145-0.14,0.221
		c-0.003,0.066,0.085,0.137,0.133,0.206C6.519,10.776,6.565,10.712,6.625,10.629z M19.011,24.849
		c-0.045-0.042-0.071-0.067-0.097-0.092c-0.064,0.085-0.132,0.168-0.188,0.258c-0.008,0.013,0.037,0.06,0.057,0.091
		C18.853,25.027,18.924,24.947,19.011,24.849z M12.579,3.117c-0.075-0.05-0.122-0.097-0.177-0.109
		c-0.021-0.005-0.092,0.087-0.083,0.106c0.024,0.05,0.076,0.098,0.127,0.117C12.469,3.239,12.519,3.171,12.579,3.117z
		 M58.831,22.753c0.079,0.033,0.116,0.06,0.153,0.06c0.022,0,0.045-0.041,0.068-0.063c-0.028-0.028-0.054-0.075-0.085-0.078
		C58.937,22.668,58.901,22.708,58.831,22.753z M34.309,26.945c0.035-0.045,0.054-0.07,0.073-0.094
		c-0.032-0.023-0.062-0.055-0.098-0.065c-0.014-0.004-0.064,0.051-0.059,0.062C34.239,26.881,34.272,26.906,34.309,26.945z
		 M6.384,13.159c-0.026,0.051-0.05,0.078-0.05,0.104c0.001,0.028,0.025,0.056,0.038,0.084C6.39,13.323,6.42,13.3,6.423,13.274
		C6.426,13.246,6.404,13.215,6.384,13.159z M19.862,7.565c-0.027,0.021-0.058,0.039-0.056,0.044c0.01,0.025,0.029,0.047,0.046,0.07
		c0.016-0.012,0.048-0.026,0.046-0.036C19.893,7.617,19.876,7.593,19.862,7.565z M12.937,26.792
		c-0.009,0.03-0.022,0.058-0.023,0.085c0,0.008,0.049,0.028,0.052,0.023c0.017-0.022,0.027-0.05,0.04-0.076
		C12.987,26.815,12.968,26.806,12.937,26.792z M13.95,2.797c-0.011-0.017-0.018-0.043-0.033-0.048
		c-0.017-0.006-0.041,0.006-0.062,0.01c0.012,0.023,0.021,0.049,0.039,0.066C13.9,2.829,13.93,2.808,13.95,2.797z M7.696,5.579
		C7.679,5.601,7.653,5.626,7.657,5.632C7.67,5.655,7.694,5.67,7.714,5.689c0.008-0.02,0.024-0.041,0.021-0.06
		C7.733,5.611,7.711,5.597,7.696,5.579z M9.714,4.092c0.015-0.014,0.039-0.026,0.042-0.042c0.003-0.018-0.012-0.039-0.019-0.059
		c-0.02,0.017-0.044,0.032-0.058,0.053C9.675,4.051,9.7,4.076,9.714,4.092z M6.784,18.177c-0.021-0.016-0.046-0.042-0.052-0.038
		c-0.022,0.013-0.038,0.037-0.056,0.057c0.02,0.008,0.041,0.023,0.06,0.021C6.753,18.214,6.767,18.192,6.784,18.177z M40.086,15.516
		c0.012-0.016,0.036-0.041,0.032-0.047c-0.013-0.021-0.037-0.036-0.056-0.053c-0.007,0.02-0.022,0.041-0.019,0.059
		C40.046,15.491,40.069,15.503,40.086,15.516z M38.065,15.273c-0.018-0.028-0.031-0.059-0.038-0.058
		c-0.028,0.004-0.054,0.019-0.08,0.03c0.01,0.016,0.02,0.046,0.031,0.047C38.004,15.293,38.032,15.281,38.065,15.273z
		 M58.946,23.707c-0.013,0.015-0.026,0.031-0.039,0.046c0.016,0.012,0.041,0.038,0.046,0.035c0.021-0.014,0.036-0.038,0.053-0.058
		C58.987,23.722,58.967,23.714,58.946,23.707z M2.136,29.339C2.12,29.35,2.096,29.357,2.09,29.372
		c-0.006,0.017,0.005,0.04,0.009,0.06c0.022-0.012,0.048-0.02,0.062-0.038C2.167,29.387,2.147,29.359,2.136,29.339z"/>
	<path d="M28.833,8.527c-0.231,0.865-0.481,1.487-0.536,2.126c-0.032,0.371,0.267,0.764,0.385,1.157
		c0.103,0.343,0.166,0.699,0.237,1.051c0.024,0.119,0.015,0.244,0.022,0.366c0.088-0.025,0.182-0.08,0.264-0.067
		c0.082,0.013,0.221,0.101,0.217,0.143c-0.022,0.212-0.067,0.427-0.14,0.627c-0.025,0.068-0.155,0.097-0.237,0.144
		c0.036,0.064,0.072,0.128,0.11,0.191c0.063,0.104,0.128,0.207,0.192,0.311c-0.19,0.042-0.473,0.184-0.555,0.109
		c-0.442-0.407-0.927-0.301-1.445-0.267c-0.774,0.051-1.555,0.013-2.332,0c-0.076-0.001-0.154-0.08-0.224-0.133
		c-0.113-0.085-0.232-0.261-0.328-0.248c-0.123,0.017-0.22,0.189-0.338,0.283c-0.148,0.117-0.305,0.223-0.458,0.333
		c-0.059-0.169-0.143-0.335-0.172-0.509c-0.12-0.725-0.235-1.452-0.321-2.182c-0.014-0.123,0.141-0.258,0.185-0.398
		c0.052-0.164,0.045-0.347,0.103-0.507c0.242-0.675,0.498-1.346,0.754-2.016c0.013-0.035,0.072-0.053,0.109-0.079
		c0.461,0.78,1.072,0.247,1.601,0.145c0.392-0.076,0.749-0.327,1.123-0.498c0.249-0.114,0.703,0.162,0.726-0.381
		C28.118,8.326,28.461,8.422,28.833,8.527z M27.977,8.72c0.071-0.067,0.129-0.103,0.152-0.154c0.01-0.022-0.06-0.111-0.088-0.109
		c-0.057,0.004-0.111,0.051-0.166,0.08C27.903,8.588,27.932,8.639,27.977,8.72z"/>
</g>
</svg>
