<?xml version="1.0" encoding="utf-8"?>
<!-- Generator: Adobe Illustrator 17.0.0, SVG Export Plug-In . SVG Version: 6.00 Build 0)  -->
<!DOCTYPE svg PUBLIC "-//W3C//DTD SVG 1.1//EN" "http://www.w3.org/Graphics/SVG/1.1/DTD/svg11.dtd">
<svg version="1.1" id="Calque_1" fill="hsl(0, 0%, 0%)" xmlns="http://www.w3.org/2000/svg" xmlns:xlink="http://www.w3.org/1999/xlink" x="0px" y="0px"
	 width="145.324px" height="31.333px" viewBox="0 0 145.324 31.333" enable-background="new 0 0 145.324 31.333"
	 xml:space="preserve">
<g>
	<g>
		<path d="M49.202,20.751c-0.342,0.3-0.681,0.479-0.841,0.76c-0.563,0.992-1.054,2.024-1.598,3.027
			c-0.088,0.162-0.291,0.289-0.468,0.372c-0.704,0.331-1.458,0.574-2.12,0.973c-0.73,0.44-1.382,1.012-2.063,1.533
			c-0.303,0.232-0.59,0.486-0.892,0.721c-0.656,0.51-1.276,1.084-1.989,1.498c-0.551,0.32-1.24,0.647-1.834,0.593
			c-0.903-0.082-1.775-0.497-2.664-0.759c-0.419-0.123-0.842-0.242-1.271-0.322c-0.612-0.115-1.245-0.145-1.838-0.316
			c-0.202-0.058-0.369-0.415-0.454-0.668c-0.207-0.614-0.326-1.258-0.537-1.87c-0.287-0.834,0.348-1.013,0.849-1.334
			c0.282-0.181,0.503-0.456,0.751-0.689c-0.028-0.139-0.055-0.278-0.083-0.417c0.542,0.152,1.104,0.255,1.623,0.465
			c1.476,0.596,2.931,0.684,4.368-0.081c0.152-0.081,0.228-0.303,0.339-0.459c-0.237-0.165-0.455-0.38-0.716-0.487
			c-0.691-0.281-1.401-0.516-2.074-0.758c0.345-0.662,0.589-1.13,0.872-1.673c-1.221-0.209-2.223-0.388-3.168,0.281
			c-0.18,0.128-0.504,0.075-0.761,0.069c-0.582-0.012-1.234-0.177-1.271,0.525c-0.433,0.175-0.958,0.234-1.031,0.448
			c-0.146,0.426-0.043,0.937-0.043,1.413c0.085,0.007,0.17,0.014,0.256,0.021c-0.193,0.111-0.529,0.194-0.557,0.337
			c-0.193,0.986-0.957,0.781-1.62,0.886c-0.595,0.093-1.159,0.376-1.754,0.485c-0.582,0.106-1.189,0.074-1.779,0.148
			c-0.37,0.046-0.73,0.173-1.092,0.271c-0.141,0.038-0.312,0.176-0.408,0.133c-1.144-0.518-1.625,0.338-2.215,1.019
			c-0.385,0.444-0.86,0.748-1.474,0.435c-0.175-0.089-0.389-0.248-0.437-0.417c-0.252-0.896,0.371-2.27,1.089-2.951
			c0.352-0.334,0.622-0.936,0.623-1.417c0.001-0.854-0.223-1.709-0.369-2.562c-0.048-0.282-0.103-0.578-0.232-0.827
			c-0.118-0.227-0.307-0.476-0.527-0.571c-0.17-0.073-0.525,0.001-0.645,0.141c-0.576,0.67-1.483,1.01-1.794,1.977
			c-0.107,0.332-0.732,0.488-1.102,0.751c-0.159,0.113-0.329,0.272-0.393,0.447c-0.291,0.79-0.754,1.591-0.763,2.393
			c-0.013,1.071-0.608,1.086-1.325,1.128c-0.208,0.012-0.418,0.002-0.694,0.002c0.084,0.693-0.215,0.899-0.84,1.236
			c-1.471,0.792-2.732,0.182-4.004-0.232c-0.53-0.173-0.87-0.906-1.316-1.365c-0.371-0.382-0.76-0.749-1.17-1.088
			c-0.057-0.048-0.277,0.1-0.519,0.197c0-0.782-0.003-1.522,0.001-2.261c0.001-0.272,0.102-0.574,0.015-0.81
			c-0.442-1.199,0.039-2.634-0.946-3.69c-0.018-0.02-0.036-0.057-0.03-0.08c0.207-0.853,0.328-1.741,0.652-2.548
			c0.348-0.868,1.036-1.589,0.758-2.667C5.566,11.679,5.67,11.144,5.814,10.7c0.273-0.843-0.146-1.756,0.001-2.415
			c0.309-1.376,0-2.697,0.17-4.011c0.094-0.725,0.674-1.39,1.053-2.072C7.086,2.117,7.25,2.038,7.351,2.049
			c1.19,0.125,2.435,0.001,3.498,0.725c0.766,0.522,0.941,1.344,1.101,2.18c0.083,0.432,0.223,0.854,0.392,1.489
			c0,0.165-0.119,0.615,0.023,0.955c0.361,0.861,0.118,1.427-0.415,2.181c-0.592,0.837-0.916,1.931-1.118,2.96
			c-0.292,1.486-0.266,3.037-0.585,4.515c-0.145,0.67,0.145,1.177,0.18,1.762c0.007,0.12,0.436,0.336,0.63,0.299
			c0.39-0.075,0.839-0.207,1.11-0.472c0.679-0.666,1.272-1.419,1.961-2.208c0.021-0.957,0.763-1.768,1.254-2.671
			c0.959,0.169,1.852,0.389,2.758,0.463c0.537,0.044,1.136-0.036,1.633-0.241c1.191-0.489,1.616-0.277,2.028,0.927
			c0.235,0.688,0.73,1.286,1.1,1.929c0.101,0.176,0.183,0.366,0.251,0.557c0.195,0.553,0.337,1.121,1.013,1.338
			c0.183,0.059,0.401,0.348,0.413,0.543c0.074,1.226,0.559,2.043,1.992,2.041c0-0.411-0.001-0.905,0.001-1.399
			c0.001-0.117-0.034-0.276,0.028-0.344c0.868-0.962,0.718-2.131,0.726-3.144c0.232-0.335,0.482-0.567,0.57-0.849
			c0.232-0.743,0.41-1.504,0.576-2.266c0.117-0.536,0.494-1.014,0.33-1.621c-0.033-0.123,0.153-0.438,0.243-0.44
			c0.76-0.017,1.524-0.014,2.281,0.049c0.405,0.034,0.795,0.225,1.2,0.299c0.754,0.138,1.513,0.241,2.27,0.362
			c0.119,0.019,0.273,0.118,0.346,0.074c0.926-0.558,1.277,0.482,1.922,0.693c0.13,0.043,0.293,0.301,0.274,0.437
			c-0.212,1.508,0.849,2.616,1.243,3.93c0.136,0.453,0.688,0.802,1.094,1.148c0.568,0.484,1.124,1.04,1.787,1.333
			c0.421,0.187,1.095,0.09,1.537-0.124c0.654-0.316,1.143-1.029,1.809-1.25c1.266-0.421,1.584-1.592,2.29-2.455
			c0.655-0.801,1.011-0.845,1.873-0.229c0.137,0.098,0.332,0.164,0.497,0.16c0.415-0.011,0.828-0.07,1.485-0.134
			c0.332-0.122,0.958-0.285,1.521-0.574c0.666-0.342,1.327-0.732,1.903-1.207c1.269-1.048,2.516-0.961,3.832-0.128
			c0.47,0.297,0.99,0.515,1.486,0.772c0.599,0.31,0.739,0.97,0.477,1.59c-0.45,1.065-0.329,2.156,0.292,3.103
			c0.548,0.836,1.262,1.561,1.889,2.346c0.559,0.7,1.384,0.351,2.075,0.52c0.081,0.02,0.429-0.494,0.376-0.57
			c-0.466-0.682-0.434-1.295-0.141-2.073c0.188-0.497-0.056-1.175-0.162-1.762c-0.265-1.471-1.222-2.555-2.055-3.601
			c0.346-0.67,0.728-1.288,0.99-1.953c0.255-0.647,0.387-1.342,0.506-1.774c1.713-2.869,4.428-4.459,6.722-6.511
			c0.816,0.784,0.816,0.784,1.223,0.299c0.388,0.744,0.969,0.926,1.796,0.836c0.784-0.086,1.344,0.445,1.683,1.172
			c0.073,0.157,0.268,0.391,0.379,0.377c1.064-0.138,0.886,0.439,0.706,1.104c-0.134,0.496-0.165,1.021-0.256,1.626
			c0.839,0.371,0.004,1.063,0.028,1.654c0.006,0.149-0.248,0.3-0.263,0.462c-0.18,1.949-1.644,2.998-2.855,4.269
			c-0.859,0.902-1.604,1.961-2.178,3.066c-0.279,0.538-0.141,1.356-0.022,2.017c0.106,0.585,1.02,0.869,1.588,0.653
			c1.504-0.57,2.552-1.605,3.29-3.02c0.176-0.338,0.556-0.609,0.9-0.813c1.257-0.745,2.531-1.464,3.822-2.149
			c0.163-0.087,0.535,0.016,0.694,0.16c0.955,0.862,1.446,0.855,2.407,0.165c0.758-0.544,1.439-1.304,2.549-1.19
			c0.517,0.053,0.861-0.795,1.511-0.386c0.137,0.086,0.396,0.15,0.406,0.243c0.194,1.897,1.593,3.18,2.403,4.759
			c0.441,0.86,0.629,1.837,1.645,2.392c0.776,0.424,1.265,0.461,1.684-0.399c0.467-0.96,0.93-1.922,1.392-2.878
			c-0.837-0.793-0.889-1.308-0.26-2.326c0.781-1.267,1.558-2.537,2.396-3.903c0.357,0.273,0.623,0.388,0.752,0.591
			c0.674,1.054,1.273,1.326,2.413,1.032c1.082-0.279,2.225,0.372,2.1,1.354c-0.058,0.453-0.821,1.204-1.173,1.156
			c-0.897-0.124-1.484,0.463-2.021,0.799c-0.875,0.548-2.083,1.075-1.688,2.485c0.042,0.661,0.085,1.321,0.134,2.089
			c0.567-0.231,1.287-0.502,1.989-0.814c1.463-0.653,2.563-1.745,3.513-3c0.203-0.268,0.264-0.67,0.505-0.876
			c0.516-0.442,1.18-1.197,1.652-1.109c1.192,0.22,1.574-0.68,2.237-1.188c0.425-0.326,0.529-1.131,1.398-0.748
			c0.156,0.069,0.537-0.493,0.866-0.667c0.35-0.186,0.65-0.338,1.037,0.203c0.377,0.526,1.198,0.711,1.696,1.181
			c0.409,0.387,0.765,0.937,0.906,1.477c0.27,1.032,0.887,1.566,1.948,1.486c0.317-0.024,0.673,0.178,0.958,0.096
			c0.266-0.076,0.463-0.393,0.724-0.502c0.238-0.107,0.504-0.178,0.71-0.33c0.574-0.423,1.117-0.889,1.686-1.319
			c0.165-0.125,0.418-0.305,0.564-0.257c0.81,0.266,1.239-0.002,1.628-0.761c0.293-0.572,0.862-0.869,1.642-0.548
			c0.957,0.394,1.744-0.021,2.154-0.908c0.126-0.333,0.253-0.666,0.378-0.999c0.05-0.133,0.172-0.301,0.131-0.398
			c-0.417-0.986-0.091-1.788,0.565-2.529c0.049-0.055,0.035-0.166,0.074-0.388c-0.174,0.222-0.267,0.34-0.36,0.459
			c-0.063-0.015-0.125-0.031-0.188-0.046c0.097-0.334,0.225-0.663,0.286-1.004c0.118-0.67,0.193-1.349,0.297-2.022
			c0.15-0.968,0.613-1.265,1.971-1.152c1.013,0.084,2.021,0.237,3.026,0.396c0.821,0.13,0.927,0.404,0.636,1.201
			c-0.19,0.521-0.161,1.172-0.469,1.587c-0.318,0.429-0.261,0.896-0.447,1.296c-0.595,1.281-0.939,2.555-0.432,3.946
			c0.044,0.121,0.04,0.294-0.013,0.409c-0.697,1.495-0.342,2.598,1.092,3.301c0.505,0.248,1.041,0.435,1.54,0.694
			c0.147,0.076,0.217,0.302,0.311,0.442c0.709-0.434,1.372-1.045,2.146-1.266c1.274-0.364,1.84-1.262,2.326-2.331
			c0.353-0.777,0.933-1.192,1.817-0.927c0.518,0.156,1.05,0.315,1.52,0.573c0.859,0.471,1.127,1.332,0.558,2.128
			c-0.687,0.963-1.52,1.824-2.305,2.716c-0.415,0.472-0.894,0.89-1.289,1.377c-0.603,0.744-1.434,0.75-2.275,0.897
			c-0.664,0.116-1.409,0.381-1.886,0.827c-0.926,0.866-2.614,1.149-3.618,0.371c-1.005-0.778-1.899-0.563-2.658,0.183
			c-0.805,0.792-1.784,1.418-2.731,2.05c-0.774,0.517-1.622,0.605-2.44,0.042c-1.155-0.795-2.51-0.459-3.768-0.661
			c-0.555-0.089-1.145,0.046-1.72,0.075c-0.972,0.048-1.755-0.128-2.439-1.017c-0.656-0.853-1.648-1.445-2.481-2.165
			c-0.144-0.124-0.229-0.316-0.476-0.668c-0.684,1.313-1.282,2.494-1.921,3.654c-0.095,0.173-0.369,0.322-0.577,0.348
			c-1.036,0.13-1.742-0.491-1.95-1.537c-0.127-0.636-0.337-1.274-0.627-1.853c-0.383-0.764-1.176-0.773-1.64-0.062
			c-0.666,1.019-1.294,2.065-1.973,3.075c-0.25,0.372-0.575,0.728-1.105,0.317c-0.098-0.076-0.298-0.014-0.451-0.024
			c-0.464-0.03-0.931-0.111-1.391-0.079c-0.235,0.016-0.456,0.232-0.736,0.386c-0.476-0.608-1.005-0.573-1.705-0.19
			c-0.468,0.257-1.109,0.238-1.676,0.268c-1.872,0.099-3.486,1.057-5.243,1.534c-0.403,0.109-0.81,0.206-1.362,0.346
			c-0.248-1.152-0.431-2.249-0.739-3.31c-0.125-0.43-0.525-0.779-0.792-1.17c-0.106-0.156-0.161-0.358-0.291-0.486
			c-0.247-0.242-0.508-0.516-0.816-0.624c-0.097-0.034-0.465,0.394-0.534,0.656c-0.147,0.558-0.147,1.152-0.267,1.719
			c-0.103,0.486-0.436,0.964-0.407,1.429c0.053,0.846-0.605,1.182-1.003,1.689c-0.505,0.642-1.055,1.267-1.835,1.613
			c-0.159,0.07-0.31,0.232-0.462,0.229c-0.821-0.017-1.433-0.708-2.372-0.605c-0.499,0.055-0.408-1.715,0.196-2.392
			c0.296-0.331,0.559-0.704,0.769-1.094c0.096-0.178,0.032-0.445,0.029-0.671c-0.002-0.191-0.074-0.398-0.024-0.571
			c0.269-0.92,0.028-1.653-0.811-2.36c-0.537,0.305-0.521,1.364-1.485,1.089c-0.555,1.198-1.904,1.475-2.848,1.851
			c-1.896,0.755-3.775,2.405-6.118,1.154c-0.193-0.103-0.595,0.222-0.911,0.306c-0.442,0.117-0.76,0.09-0.986-0.465
			c-0.383-0.941-1.437-0.981-2.631-0.588c-0.291,0.096-0.594,0.154-0.959,0.247c-0.045,0.682-0.42,1.107-1.116,1.084
			c0.225-0.79-0.324-1.211-0.859-1.524c-0.657-0.384-1.399-0.622-2.104-0.924c-0.363-0.155-0.732-0.297-1.087-0.469
			c-0.919-0.445-0.917-0.45-1.047,0.624c0.191,0.068,0.382,0.137,0.493,0.176c-0.063,0.432,0.013,0.918-0.193,1.129
			c-0.58,0.592-0.117,1.13-0.008,1.651c0.225,1.08-0.221,2.226-1.164,2.709c-0.504,0.258-1.787-0.108-2.177-0.584
			c-0.144-0.176-0.378-0.277-0.573-0.413c0.344-0.997,0.69-1.983,1.016-2.974c0.024-0.072-0.149-0.196-0.142-0.29
			c0.044-0.583-0.48-1.267,0.311-1.733c0.093-0.055,0.118-0.339,0.077-0.49c-0.186-0.691-0.361-1.392-0.626-2.055
			c-0.428-1.07-1.334-0.805-1.903-0.694c-0.396,0.438-0.677,0.723-0.925,1.035c-0.121,0.152-0.245,0.349-0.257,0.534
			c-0.079,1.183-0.195,2.369-0.164,3.551c0.026,1.017,0.224,2.031,0.36,3.044c0.076,0.566,0.163,1.099-0.58,1.327
			c-0.199,0.061-0.372,0.292-0.5,0.483c-0.615,0.92-1.43,0.947-2.349,0.562c-0.053-0.022-0.112-0.081-0.154-0.07
			c-0.625,0.169-1.308,0.238-1.517-0.506c-0.268-0.955-1.002-1.927-0.283-2.962c0.414-0.596,0.873-1.191,1.419-1.66
			c0.899-0.773,0.711-1.697,0.57-2.657C49.165,21.67,49.202,21.362,49.202,20.751z M70.368,14.86
			c1.271-2.703,3.429-4.934,3.505-7.91c-0.726-0.252-1.396-0.484-1.852-0.643c-0.15,0.322-0.231,0.742-0.377,0.766
			c-0.779,0.129-0.951,0.795-1.26,1.318c-0.456,0.771-0.905,1.556-1.253,2.379c-0.232,0.547-0.844,1.111-0.056,1.832
			c-0.953,0.2-0.925,0.701-0.69,1.382c0.123,0.358-0.032,0.807-0.039,1.216c-0.011,0.641-0.003,1.283-0.003,2.089
			c0.927-0.911,1.64-1.612,2.326-2.286C70.698,15.015,70.539,14.94,70.368,14.86z M123.174,23.349
			c0.666-0.855,1.236-1.659,1.881-2.397c1.008-1.153,1.609-2.342,0.711-3.548c-0.505,0.036-0.975,0.073-1.447,0.104
			c-1.858,0.122-3.045,2.122-2.238,3.807C122.409,21.999,122.799,22.655,123.174,23.349z"/>
	</g>
</g>
</svg>
