<?xml version="1.0" encoding="utf-8"?>
<!-- Generator: Adobe Illustrator 17.0.0, SVG Export Plug-In . SVG Version: 6.00 Build 0)  -->
<!DOCTYPE svg PUBLIC "-//W3C//DTD SVG 1.1//EN" "http://www.w3.org/Graphics/SVG/1.1/DTD/svg11.dtd">
<svg version="1.1" id="Calque_1" xmlns="http://www.w3.org/2000/svg" xmlns:xlink="http://www.w3.org/1999/xlink" x="0px" y="0px"
	 width="162.736px" height="33.875px" viewBox="0 0 162.736 33.875" enable-background="new 0 0 162.736 33.875"
	 xml:space="preserve">
<g>
	<g>
		<path d="M123.336,11.161c-0.273,0.682-0.557,1.359-0.807,2.05c-0.04,0.111,0.029,0.324,0.122,0.409
			c0.192,0.175,0.434,0.295,0.695,0.462c-0.072,0.086-0.119,0.198-0.192,0.218c-0.614,0.169-0.942,0.64-0.939,1.27
			c0.001,0.21-0.117,0.438-0.231,0.629c-0.503,0.843-1.067,1.662-0.898,2.723c0.017,0.109,0.078,0.211,0.189,0.498
			c0.461-0.708,0.944-1.254,1.196-1.892c0.252-0.64,0.273-1.372,0.422-2.214c0.882-0.034,1.775-0.064,2.666-0.106
			c0.287-0.013,0.58-0.11,0.858-0.073c0.373,0.05,0.74,0.174,1.094,0.307c0.089,0.033,0.194,0.25,0.163,0.338
			c-0.245,0.708-0.521,1.406-0.787,2.107c-0.014,0.038-0.029,0.078-0.033,0.118c-0.054,0.538-0.009,1.11-0.18,1.607
			c-0.269,0.78,0.031,1.371,0.395,1.99c0.113,0.192,0.184,0.41,0.272,0.613c0.883,0.013,1.93-0.753,2.14-1.816
			c0.239-1.208,0.668-2.421,0.388-3.631c-0.231-1,0.286-1.435,0.909-1.928c0.503-0.398,0.977-0.836,1.498-1.208
			c0.319-0.228,0.688-0.415,1.063-0.531c0.499-0.154,0.642,0.278,0.761,0.62c0.313,0.904,0.97,1.383,1.849,1.662
			c0.611,0.193,1.202,0.453,1.795,0.698c0.448,0.185,0.855,0.361,1.319-0.032c0.494-0.419,1.012-0.292,1.219,0.302
			c0.199,0.57,0.27,1.182,0.42,1.77c0.152,0.597,0.333,1.188,0.526,1.871c0.161-0.627,0.337-1.179,0.44-1.744
			c0.153-0.839,0.288-0.94,1.169-0.61c-0.055-0.259-0.152-0.468-0.128-0.661c0.033-0.262,0.091-0.638,0.265-0.732
			c0.185-0.1,0.533,0.034,0.779,0.138c0.151,0.064,0.294,0.246,0.354,0.407c0.171,0.459,0.484,0.617,0.956,0.615
			c0.236-0.001,0.473,0.118,0.697,0.179c0.254-0.335,0.467-0.708,0.766-0.989c0.47-0.441,1.054-0.381,1.604-0.163
			c0.564,0.223,1.111,0.342,1.688,0.061c0.087-0.042,0.209-0.055,0.304-0.034c0.48,0.105,0.954,0.315,1.434,0.324
			c1.328,0.024,2.033,1.032,2.854,1.793c0.382,0.355,0.467,1.031,0.682,1.563c0.097,0.241,0.154,0.504,0.281,0.727
			c0.177,0.312,0.362,0.64,0.618,0.883c0.409,0.388,0.862,0.739,1.334,1.046c0.122,0.079,0.388-0.063,0.656-0.117
			c0.438,0.645,0.997,0.736,1.706,0.23c0.183-0.131,0.553-0.012,0.835,0.012c0.386,0.034,0.77,0.087,1.282,0.147
			c-0.043,0.307-0.089,0.633-0.133,0.947c0.368,0.799,0.295,1.756,0.615,2.625c0.616,0.149,0.668,0.325,0.264,0.841
			c-0.204,0.26-0.354,0.562-0.54,0.862c-0.57-0.733-1.172,0.14-1.812,0.1c-0.535-0.033-1.102,0.02-1.616,0.168
			c-0.959,0.275-1.768-0.011-2.688-0.276c-0.728-0.21-1.352-0.531-2.016-0.832c-0.682-0.309-2.057,0.122-2.227,0.46
			c-0.577,0.186-0.983,0.317-1.39,0.446c-0.097,0.031-0.197,0.057-0.297,0.078c-1.114,0.226-2.223,0.478-3.345,0.657
			c-0.325,0.052-0.681-0.138-1.027-0.169c-0.617-0.056-1.241-0.05-1.856-0.12c-0.433-0.049-0.891-0.11-1.275-0.296
			c-0.41-0.198-0.716-0.136-1.102,0.027c-0.431,0.183-0.835,0.155-1.278-0.186c-0.333-0.256-0.87-0.279-1.325-0.337
			c-0.716-0.091-0.751-0.134-0.638-0.824c0.062-0.38,0.194-0.78-0.381-1.018c-0.263-0.109-0.582-0.518-0.284-0.964
			c0.059-0.088,0.096-0.285,0.045-0.337c-0.737-0.767-0.611-1.851-1.025-2.734c-0.237-0.506-0.433-1.035-0.719-1.511
			c-0.047-0.078-0.62-0.007-0.675,0.117c-0.176,0.395-0.221,0.847-0.317,1.277c-0.018,0.078-0.009,0.191-0.058,0.229
			c-1.063,0.823-0.106,1.728-0.1,2.589c0.004,0.56,0.297,1.019,0.62,1.476c0.107,0.151-0.062,0.517-0.157,0.765
			c-0.012,0.032-0.342-0.058-0.58-0.102c-0.16,0.06-0.406,0.139-0.64,0.244c-0.409,0.185-0.485-0.122-0.627-0.379
			c-0.05-0.09-0.193-0.158-0.305-0.179c-1.754-0.331-3.391-0.011-4.907,0.922c-0.126,0.078-0.189,0.252-0.292,0.372
			c-0.244,0.287-0.568,0.52-0.9,0.271c-0.151-0.113-0.099-0.496-0.144-0.755c-0.024-0.136-0.056-0.271-0.09-0.405
			c-0.072-0.287-0.111-0.588-0.228-0.855c-0.214-0.485-0.476-0.949-0.765-1.515c0.012-0.013,0.142-0.157,0.311-0.345
			c-0.154-0.069-0.283-0.127-0.412-0.185c0.058-0.017,0.116-0.033,0.174-0.05c-0.066-0.339-0.126-0.68-0.201-1.018
			c-0.049-0.222-0.066-0.48-0.193-0.65c-0.334-0.447-1.015-0.418-1.302,0.101c-0.333,0.602-0.796,1.279-0.765,1.902
			c0.044,0.874-0.549,1.684-0.163,2.569c0.055,0.127-0.193,0.386-0.337,0.651c0.15,0,0.242-0.02,0.319,0.005
			c0.119,0.039,0.228,0.109,0.341,0.165c-0.085,0.127-0.147,0.284-0.262,0.369c-0.083,0.061-0.251,0.064-0.358,0.026
			c-0.783-0.28-1.601-0.5-2.324-0.893c-0.523-0.285-0.866-0.458-1.174,0.187c-0.018,0.039-0.108,0.044-0.163,0.064
			c-0.391-0.777-0.391-0.777-1.199-0.971c0.438-0.638,0.303-0.935-0.506-1.139c-0.343-0.086-0.683-0.189-1.091-0.302
			c-0.042,0.053-0.142,0.177-0.255,0.318c-0.044-0.011-0.104-0.015-0.152-0.04c-0.435-0.226-1.369-0.001-1.673,0.346
			c-0.356,0.407-0.752,0.783-1.16,1.14c-0.094,0.082-0.308,0.021-0.465,0.041c-0.241,0.03-0.567-0.088-0.578,0.361
			c-0.001,0.058-0.335,0.186-0.477,0.146c-0.43-0.119-0.849-0.286-1.257-0.471c-0.388-0.176-0.751-0.405-1.133-0.594
			c-0.222-0.11-0.49-0.146-0.685-0.287c-0.335-0.243-0.637-0.536-0.94-0.821c-0.613-0.574-1.217-1.157-1.826-1.735
			c-0.074-0.071-0.15-0.171-0.24-0.19c-0.866-0.182-1.511-0.573-1.474-1.52c-0.373,0-0.668,0-1.074,0
			c-0.019,0.252-0.025,0.582-0.076,0.905c-0.019,0.123-0.112,0.28-0.217,0.336c-0.879,0.471-1.311,1.237-1.664,2.146
			c-0.377,0.973-1.058,1.834-1.387,2.817c-0.207,0.616-0.566,1.025-0.981,1.421c-0.316,0.301-0.732,0.498-1.105,0.739
			c-0.118,0.077-0.264,0.125-0.358,0.224c-0.545,0.577-1.369,0.742-2.025,0.301c-0.847-0.57-1.646-1.21-2.472-1.81
			c-0.107-0.078-0.261-0.153-0.381-0.138c-0.53,0.066-0.581-0.174-0.356-0.626c-0.035-0.046-0.069-0.093-0.104-0.139
			c-0.801,0.244-1.59,0.541-2.406,0.714c-0.519,0.11-1.088,0.102-1.615,0.022c-0.465-0.071-0.918-0.288-1.348-0.497
			c-0.179-0.087-0.403-0.32-0.405-0.49c-0.007-0.545,0.068-1.092,0.134-1.636c0.053-0.436,0.153-0.867,0.207-1.303
			c0.078-0.625,0.201-1.256,0.175-1.879c-0.019-0.447,0.154-0.95-0.342-1.362c-0.249-0.207-0.279-0.717-0.339-1.101
			c-0.101-0.643-0.446-0.709-1.025-0.484c0.067,0.362,0.147,0.72,0.192,1.081c0.011,0.087-0.101,0.185-0.144,0.283
			c-0.056,0.128-0.18,0.33-0.135,0.384c0.446,0.537,0.116,1.095,0.086,1.645c-0.01,0.184-0.003,0.476,0.103,0.539
			c0.446,0.265,0.211,0.484,0.025,0.747c-0.399,0.564-0.825,1.117-1.157,1.719c-0.153,0.277-0.053,0.683-0.172,0.99
			c-0.225,0.581-0.537,1.127-0.786,1.7c-0.087,0.2-0.1,0.434-0.139,0.654c-0.029,0.162,0.005,0.431-0.079,0.473
			c-0.505,0.252-1.022,0.566-1.562,0.63c-0.379,0.045-0.393-0.448-0.444-0.816c-0.053-0.385-0.227-0.785-0.449-1.109
			c-0.43-0.627-0.523-1.265-0.416-2.013c0.106-0.745,0.022-1.515,0.08-2.269c0.081-1.055,0.238-2.104,0.31-3.159
			c0.017-0.247-0.116-0.649-0.294-0.73c-0.276-0.125-0.576-0.307-0.998-0.044c-0.815,0.509-1.095,1.315-1.441,2.099
			c-0.115,0.261-0.116,0.573-0.061,0.864c-0.185,0.363-0.37,0.726-0.555,1.09c-0.015,0.003-0.03,0.006-0.046,0.009
			c-0.104,0.234-0.243,0.46-0.305,0.705c-0.13,0.515-0.238,1.037-0.32,1.562c-0.041,0.266,0.04,0.554-0.02,0.813
			c-0.049,0.213-0.194,0.429-0.356,0.581c-0.106,0.1-0.328,0.139-0.48,0.111c-0.231-0.042-0.463-0.14-0.665-0.264
			c-0.195-0.12-0.47-0.278-0.507-0.46c-0.258-1.294-1.219-2.045-2.12-2.842c-0.419-0.371-0.843-0.161-1.206,0.108
			c-0.132,0.098-0.159,0.337-0.294,0.649c-0.408,0.111-0.691,0.362-0.403,1.027c0.083,0.191-0.27,0.572-0.465,0.946
			c-0.512-0.51-0.86-0.87-0.813-1.511c0.017-0.229-0.293-0.482-0.374-0.605c-0.157-0.338-0.204-0.666-0.36-0.731
			c-0.476-0.197-0.657-1.379-1.404-0.531c-0.186-0.095-0.419-0.269-0.466-0.228c-0.432,0.374-0.842,0.775-1.236,1.19
			c-0.278,0.293-0.521,0.618-0.777,0.931c-0.207,0.253-0.417,0.505-0.612,0.768c-0.372,0.502-1.914,0.789-2.677,0.665
			c-1.028-0.166-1.822-0.798-2.742-1.158c-1.292-0.506-1.905-1.65-2.766-2.58c-0.543-0.587-1.238-1.039-1.891-1.516
			c-0.289-0.211-0.681-0.507-0.956-0.446c-0.272,0.061-0.472,0.511-0.673,0.81c-0.218,0.324-0.526,0.655-0.576,1.013
			c-0.163,1.173-1.082,1.708-1.879,2.305c-1.305,0.978-2.861,1.242-4.455,1.391c-1.024,0.095-2.033,0.338-3.053,0.485
			c-0.287,0.041-0.595,0.011-0.884-0.04c-0.847-0.151-1.694-0.309-2.53-0.507c-0.265-0.063-0.494-0.269-0.747-0.394
			c-1.187-0.581-2.431-0.766-3.755-0.656c-1.282,0.106-2.581,0.187-3.86,0.101c-1.248-0.084-2.497-0.237-3.637-0.94
			c-0.652-0.402-1.453-0.545-2.265-0.067c-0.67,0.394-1.45,0.599-2.172,0.909c-0.197,0.085-0.36,0.247-0.551,0.383
			c-0.347-0.016-0.774,0.004-1.184-0.068c-0.315-0.055-0.609-0.228-0.912-0.348c-0.971-0.385-1.938-0.78-2.915-1.152
			c-0.643-0.244-0.952-0.655-1.038-1.37c-0.103-0.869-0.362-1.722-0.586-2.573c-0.26-0.989-0.556-1.969-0.85-3
			c-0.322,0.108-0.507,0.184-0.698,0.23c-0.356,0.084-0.489,0.129-0.223,0.56c0.222,0.36,0.227,0.899,0.204,1.352
			c-0.025,0.478-0.205,0.946-0.302,1.421c-0.071,0.346-0.172,0.698-0.162,1.044c0.014,0.501-0.443,1.207-0.937,1.369
			c-0.778,0.256-1.546,0.542-2.323,0.8c-0.102,0.034-0.248-0.066-0.35-0.032c-0.375,0.125-0.741,0.281-1.152,0.442
			c-0.376-0.551-0.513,0.038-0.644,0.214c-0.391,0.055-0.676,0.122-0.963,0.127c-0.21,0.003-0.471-0.015-0.618-0.136
			c-0.127-0.104-0.126-0.366-0.206-0.64c-0.344-0.065-1.014,0.063-1.042-0.649c-0.017-0.437,0.174-0.907,0.36-1.322
			c0.342-0.765,1.164-1.27,1.149-2.254c-0.004-0.292,0.308-0.59,0.473-0.883c-0.084-0.11-0.181-0.238-0.278-0.365
			c0.58,0.099,0.94,0.011,0.986-0.613c0.001-0.018,0.225-0.019,0.222-0.018c0.094-0.39,0.19-0.74,0.26-1.095
			c0.046-0.23,0.139-0.498,0.066-0.697c-0.524-1.438,0.326-2.512,0.975-3.609c0.169-0.286,0.734-0.309,1.027-0.558
			c0.404-0.343,1.077-0.208,1.328-0.792c0.036-0.084,0.142-0.167,0.233-0.193c0.772-0.22,1.541-0.459,2.326-0.621
			c0.336-0.069,0.708,0.019,1.062,0.059c0.631,0.071,1.262,0.228,1.891,0.215c0.355-0.007,0.705-0.282,1.111-0.46
			c0.089,0.57,0.339,0.59,0.879,0.461c0.66-0.158,1.064,0.492,1.594,0.906c-0.791,0.245-0.965,0.849-1.094,1.475
			c-0.181,0.882-0.378,1.763-0.506,2.653c-0.048,0.332,0.081,0.688,0.23,1.025c0,0.449,0,0.899,0,1.349
			c0.477-0.264,0.888-0.478,1.284-0.716c0.241-0.145,0.465-0.321,0.688-0.493c0.157-0.121,0.296-0.264,0.45-0.388
			c0.095-0.076,0.278-0.123,0.292-0.205c0.104-0.585,0.589-0.823,0.965-1.184c0.48-0.461,0.851-1.035,1.288-1.544
			c0.11-0.129,0.29-0.265,0.446-0.276c0.817-0.056,1.637-0.06,2.454-0.108c0.405-0.024,0.806-0.131,1.211-0.155
			c1.073-0.063,2.148-0.101,3.267-0.151c0.267,0.475,0.267,0.475,1.534,0.85c-0.147,0.18-0.276,0.337-0.48,0.587
			c0.497,0.118,0.923,0.219,1.398,0.332c0,0.108,0,0.259,0,0.414c1.055,0.324,1.534,1.051,1.776,2.158
			c0.169,0.771,0.085,1.67,0.837,2.272c0.5,0.401,0.721,0.42,1.274,0.057c0.895-0.587,1.832-1.109,2.77-1.67
			c-0.061-0.436-0.111-0.947-0.215-1.446c-0.027-0.132-0.209-0.315-0.336-0.329c-0.6-0.067-0.702-0.595-0.928-0.982
			c-0.073-0.125,0.076-0.38,0.135-0.624c-0.075-0.016-0.227-0.003-0.289-0.071c-0.181-0.198-0.44-0.424-0.448-0.647
			c-0.006-0.164,0.323-0.358,0.525-0.508c0.355-0.264,0.695-0.612,1.098-0.733c0.85-0.255,1.758-0.591,2.602-0.504
			c0.736,0.076,1.416,0.687,2.121,1.061c-0.047,0.037-0.095,0.075-0.142,0.112c0.07,0.187,0.101,0.402,0.216,0.556
			c0.524,0.703,1.004,1.457,1.627,2.062c0.624,0.606,1.401,1.054,2.102,1.582c0.105,0.079,0.196,0.208,0.239,0.332
			c0.252,0.722,0.741,1.247,1.468,1.404c0.773,0.166,1.578,0.205,2.371,0.237c0.286,0.012,0.65-0.076,0.458-0.576
			c-0.045-0.118,0.101-0.381,0.232-0.485c0.739-0.586,1.673-1.02,2.199-1.752c0.396-0.552,1.352-0.793,1.184-1.738
			c-0.015-0.086,0.105-0.2,0.171-0.295c0.119-0.173,0.243-0.341,0.36-0.504c0.241-0.147,0.515-0.284,0.754-0.466
			c0.53-0.404,1.036-0.84,1.569-1.24c0.099-0.074,0.287-0.081,0.419-0.052c0.46,0.1,0.926,0.193,1.365,0.357
			c0.381,0.143,0.71,0.431,1.094,0.56c0.652,0.22,1.335,0.345,1.994,0.547c0.553,0.17,1.087,0.401,1.636,0.585
			c0.114,0.038,0.259-0.008,0.389-0.025c0.688-0.089,1.352,0.588,1.319,1.265c-0.033,0.687,0.023,1.378,0.038,2.068
			c0.011,0.463-0.06,0.946,0.048,1.384c0.134,0.543,0.401,1.022,1.05,1.209c0.385,0.111,0.539-0.02,0.689-0.29
			c0.176-0.317,0.382-0.627,0.496-0.966c0.124-0.37,0.22-0.771,0.216-1.157c-0.006-0.522,0.195-0.815,0.532-0.874
			c0.168-0.759,0.334-1.42,0.457-2.089c0.086-0.465,0.109-0.942,0.172-1.412c0.046-0.349,0.235-0.461,0.602-0.557
			c0.469-0.122,1.089,0.168,1.433-0.422c0.011-0.019,0.455,0.104,0.514,0.24c0.439,1.014,0.714,2.108,1.485,2.944
			c0.23-0.162,0.434-0.305,0.639-0.449c-0.026-0.019-0.052-0.039-0.079-0.058c0.218-0.29,0.388-0.643,0.666-0.853
			c0.28-0.21,0.678-0.264,0.114-0.608c-0.069-0.042-0.091-0.332-0.028-0.39c0.416-0.379,0.809-0.801,1.467-0.745
			c0.818,0.07,1.525,0.346,2.245,0.764c0.595,0.345,1.195,0.763,2.002,0.765c0.559,0.001,1.114,0.406,1.676,0.617
			c0.291,0.109,0.588,0.216,0.891,0.273c0.433,0.081,0.68-0.196,0.991-0.472c0.447-0.396,1.035-0.63,1.553-0.948
			c0.305-0.188,0.577-0.434,0.892-0.602c0.369-0.197,0.435,0.019,0.473,0.362c0.038,0.34,0.251,0.661,0.285,1
			c0.063,0.643,0.127,1.301,0.054,1.937c-0.131,1.138-0.398,2.26-0.534,3.397c-0.053,0.446,0.079,0.918,0.157,1.373
			c0.015,0.09,0.192,0.239,0.252,0.221c0.247-0.074,0.613-0.143,0.692-0.321c0.491-1.113,1.018-2.205,0.881-3.514
			c-0.052-0.5,0.36-1.046,0.549-1.575c0.468-1.316,1.689-1.237,2.728-1.42c0.581-0.102,1.025-0.301,1.438-0.717
			c0.154-0.155,0.653-0.229,0.77-0.113c0.43,0.426,0.777,0.94,1.131,1.438c0.086,0.121,0.083,0.307,0.097,0.363
			c0.216,0.029,0.389,0.025,0.54,0.081c0.183,0.067,0.362,0.166,0.514,0.287c0.147,0.118,0.257,0.281,0.384,0.424
			c-0.171,0.059-0.341,0.12-0.514,0.174c-0.056,0.017-0.118,0.014-0.086,0.143c-0.129,0.106-0.258,0.211-0.509,0.417
			c0.251,0.028,0.423,0.102,0.534,0.05c0.696-0.327,1.25-0.029,1.306,0.721c0.004,0.054,0.048,0.104,0.158,0.331
			c0.075-0.277,0.11-0.403,0.155-0.569c0.145,0.069,0.317,0.151,0.505,0.24c0-0.159-0.053-0.329,0.008-0.396
			c0.78-0.863,0.8-1.799,0.321-2.804c-0.161-0.338,0.066-1.307,0.343-1.547c0.227-0.196,0.469-0.375,0.686-0.58
			c0.06-0.057,0.084-0.183,0.079-0.275c-0.042-0.801,0.393-1.28,1.127-1.527c0.599-0.202,1.205-0.517,1.678-0.931
			c0.893-0.782,1.809-0.609,2.793-0.318c0.33,0.098,0.699,0.062,1.049,0.095c0.434,0.041,0.949-0.043,1.335,0.194
			c0.226,0.139,0.231,0.785-0.12,1.19c-0.083,0.095-0.131,0.369-0.076,0.413c0.73,0.593,0.284,1.299,0.164,1.935
			c-0.108,0.571-0.436,1.067-0.251,1.726c0.094,0.333-0.154,0.793-0.323,1.16c-0.269,0.585-0.66,1.119-0.893,1.716
			c-0.281,0.72-0.463,1.48-0.65,2.233c-0.017,0.067,0.254,0.301,0.38,0.292c0.595-0.043,1.189-0.13,1.777-0.233
			c0.12-0.021,0.213-0.179,0.326-0.263c0.311-0.231,0.627-0.457,0.992-0.665c0.195-0.1,0.38-0.238,0.587-0.294
			c0.449-0.122,0.575-0.447,0.467-0.897c-0.235-0.977-0.889-1.4-1.982-1.481c0.683-0.817-0.389-1.452,0.061-2.348
			c0.315-0.626,0.064-1.52,0.552-2.238c0.445-0.656,0.735-1.417,1.107-2.159c-0.414-2.004-0.476-4.047,0.875-5.962
			c0.01,0.001,0.113-0.001,0.205,0.03c0.094,0.031,0.178,0.095,0.124,0.065c0.477-0.394,0.897-0.751,1.328-1.094
			c0.177-0.141,0.363-0.286,0.569-0.371c0.703-0.29,1.427-0.531,2.122-0.839c0.266-0.118,0.454-0.488,0.713-0.533
			c0.58-0.101,1.182-0.07,1.835-0.094c-0.071,0.878,0.377,0.85,0.933,0.75c0.167-0.03,0.4,0.123,0.554,0.251
			c0.365,0.304,0.707,0.637,1.045,0.972c0.138,0.137,0.242,0.308,0.36,0.465c0.231,0.305,0.46,0.611,0.746,0.99
			c-0.31,0.73,0.573,0.877,1.024,1.361c-1.103,0.281-0.314,1.085-0.528,1.624c-0.159,0.401-0.201,0.853-0.261,1.287
			c-0.074,0.537-0.114,1.078-0.168,1.618C123.34,11.169,123.336,11.161,123.336,11.161z M62.737,18.111
			c-0.34-0.568-0.908-0.539-1.431-0.466c-0.272,0.038-0.512,0.301-0.868,0.526c-0.597-0.227-1.356-0.299-2.1,0.178
			c-0.596,0.383-0.858,0.986-1.013,1.621c-0.052,0.214,0.091,0.636,0.261,0.716c0.664,0.313,1.373,0.533,2.071,0.77
			c0.076,0.026,0.188-0.068,0.287-0.091c0.256-0.059,0.515-0.157,0.771-0.153c0.516,0.009,1.043,0.165,1.543,0.095
			c0.653-0.091,1-0.664,1.354-1.169c0.359-0.514-0.105-1.034-0.003-1.562c0.028-0.147-0.168-0.347-0.28-0.51
			C63.114,17.753,62.907,17.721,62.737,18.111z M117.063,7.47c-0.311,0.509-0.631,1.032-0.95,1.555
			c-0.065,0.107-0.104,0.269-0.199,0.313c-1.056,0.496-1.062,1.548-1.258,2.459c-0.131,0.605,0.006,1.264-0.087,1.883
			c-0.136,0.904-0.106,1.82-0.128,2.717c-0.014,0.567,0.52,1.145,0.802,1.721c0.257,0.522,0.544,0.575,0.874,0.092
			c0.265-0.389,0.287-0.831-0.019-1.249c-0.099-0.135-0.189-0.303-0.207-0.464c-0.057-0.512-0.081-1.027-0.108-1.541
			c-0.004-0.075,0.019-0.181,0.071-0.226c0.631-0.546,0.733-1.351,0.953-2.071c0.33-1.084,0.138-2.289,0.715-3.33
			c0.033-0.06,0.006-0.163-0.014-0.241C117.37,8.577,117.228,8.069,117.063,7.47z M31.911,19.471
			c-0.473-0.459-1.09-0.335-1.717,0.074c-0.057-0.306-0.092-0.498-0.125-0.674c-0.65-0.231-0.98,0.277-1.409,0.518
			c-0.477,0.267-0.944,0.554-1.476,0.867c0,0.394,0,0.941,0,1.588c0.356,0.072,0.859,0.027,1.124,0.256
			c0.59,0.511,1.172,0.483,1.821,0.264c0.476-0.16,0.949-0.329,1.424-0.493c-0.01-0.043-0.02-0.085-0.03-0.128
			c0.157,0.064,0.313,0.128,0.612,0.25c0-0.514,0.027-0.93-0.008-1.341C32.098,20.289,31.999,19.931,31.911,19.471z M143.68,23.358
			c0.477,0.505,0.475,0.495,1.153,0.415c0.141-0.017,0.293,0.073,0.442,0.104c0.253,0.053,0.506,0.131,0.762,0.143
			c0.951,0.045,1.033-1.219,1.915-1.294c0.008-0.001,0.012-0.037,0.02-0.056c0.41-1.005,0.28-1.311-0.74-1.692
			c-0.18-0.067-0.38-0.077-0.569-0.121c-0.478-0.11-1.116,0.187-1.327-0.659c-0.574,0.599-1.067,1.114-1.56,1.628
			c-0.042-0.037-0.084-0.073-0.126-0.11c0-0.248,0-0.497,0-0.745c-0.202,0.188-0.262,0.436-0.41,0.605
			c-0.507,0.579-0.524,0.74,0.197,1.03C143.931,22.804,143.906,23.018,143.68,23.358z"/>
		<path d="M123.34,11.169c0.124-0.226,0.272-0.443,0.368-0.681c0.187-0.464,0.311-0.957,0.535-1.402
			c0.076-0.151,0.365-0.237,0.57-0.271c0.669-0.112,1.349-0.28,2.017-0.248c0.606,0.029,1.202,0.285,1.8,0.452
			c0.13,0.036,0.242,0.146,0.372,0.174c0.71,0.156,1.066,0.477,1.05,1.187c-0.021,0.919-0.126,1.839-0.25,2.751
			c-0.071,0.525-0.83,0.742-1.339,0.564c-0.446-0.156-0.958-0.126-1.469-0.18c0.052-0.063,0.14-0.17,0.296-0.359
			c-0.275,0.028-0.52-0.011-0.691,0.083c-0.629,0.345-1.188,0.15-1.781-0.099c-0.174-0.073-0.44,0.087-0.667,0.126
			c-0.629,0.107-0.75-0.025-0.734-0.631c0.013-0.49-0.05-0.982-0.079-1.474C123.336,11.161,123.34,11.169,123.34,11.169z"/>
	</g>
</g>
</svg>
